<svg width="88" height="90" viewBox="0 0 88 90" fill="none" xmlns="http://www.w3.org/2000/svg">
<mask id="mask0_1071_10799" style="mask-type:luminance" maskUnits="userSpaceOnUse" x="0" y="0" width="88" height="90">
<path d="M87.8045 89.2H0.366699V0.626678H87.8045V89.2Z" fill="white"/>
</mask>
<g mask="url(#mask0_1071_10799)">
<path d="M23.1353 20.8098C17.3028 20.8098 12.1145 24.5928 10.2306 30.2248L10.1033 30.6491C9.65889 32.1404 9.47272 33.3947 9.47272 34.6496V59.8129L0.634148 29.9259C-0.502543 25.53 2.08791 20.9726 6.43413 19.7582L62.7711 4.47487C63.4744 4.29044 64.1774 4.20187 64.8699 4.20187C68.4983 4.20187 71.8138 6.64136 72.7431 10.2365L76.0254 20.8098H23.1353Z" fill="#DCE5F1"/>
<path d="M33.1546 59.5616C37.1733 59.5616 40.4409 62.8721 40.4409 66.943C40.4409 71.0139 37.1733 74.3246 33.1546 74.3246C29.1359 74.3246 25.8677 71.0139 25.8677 66.943C25.8677 62.8721 29.1359 59.5616 33.1546 59.5616Z" fill="#DCE5F1"/>
<path d="M78.696 85.3964H24.0461C19.026 85.3964 14.938 81.2553 14.938 76.1693V35.5728C14.938 30.4868 19.026 26.3457 24.0461 26.3457H78.696C83.7168 26.3457 87.8048 30.4868 87.8048 35.5728V76.1693C87.8048 81.2553 83.7168 85.3964 78.696 85.3964ZM24.0461 78.015H78.696C79.702 78.015 80.5179 77.1885 80.5179 76.1693V49.9695L69.0089 63.5736C67.7881 65.0238 66.0208 65.799 64.1228 65.8428C62.2357 65.8321 60.4652 64.9833 59.2556 63.5141L45.724 47.0616L41.3156 51.5163C38.8239 54.0404 34.7686 54.0404 32.2803 51.5163L22.2248 41.3337V76.1693C22.2248 77.1885 23.0408 78.015 24.0461 78.015Z" fill="#DCE5F1"/>
</g>
</svg>
